<?xml version="1.0" encoding="utf-8"?>
<!-- Generator: Adobe Illustrator 19.0.0, SVG Export Plug-In . SVG Version: 6.00 Build 0)  -->
<svg version="1.1" id="Warstwa_1" xmlns="http://www.w3.org/2000/svg" xmlns:xlink="http://www.w3.org/1999/xlink" x="0px" y="0px"
	 viewBox="0 0 1920 175.9" style="enable-background:new 0 0 1920 175.9;" xml:space="preserve">
<style type="text/css">
	.st0{fill:#FFFFFF;}
</style>
<g id="XMLID_27_">
	<rect id="XMLID_28_" x="675.7" y="6.6" class="st0" width="94.8" height="169.2"/>
	<rect id="XMLID_39_" x="871.5" y="6.6" class="st0" width="94.8" height="169.2"/>
	<rect id="XMLID_40_" x="1009.9" y="6.6" class="st0" width="94.8" height="169.2"/>
	<path id="XMLID_43_" class="st0" d="M477.6,155.7C477.1,62.1,469.7,0,355.8,0c-96.9,0-116.7,45-120.8,116.1c0-1.4,0.1-2.8,0.1-4.3
		c0-74.4-37-105.2-109.5-105.2H0v169.2h218.5c9-13.6,14.6-30.8,16.2-51.9c-0.7,16.1-0.7,33.5-0.7,51.9h97.6
		c0-99.1,3.8-113.3,24.2-113.3c20.4,0,24.2,14.2,24.2,113.3h192.4V6.6h-94.8V155.7z M105.2,149.3H94.8V74.9h10.4
		c24.2,0,32.2,13.7,32.2,37C137.5,146,122.8,149.3,105.2,149.3z"/>
	<rect id="XMLID_44_" x="1830.9" y="6.6" class="st0" width="89.1" height="169.2"/>
	<path id="XMLID_45_" class="st0" d="M1678.8,6.6v127.4C1676.7,52.6,1662.1,0,1557.3,0c-106.4,0-119.9,54.3-121.6,137.8V6.6H1341v0
		h-236.2v79.7h71v89.6h94.8V86.2h70.3v89.6h192.2c0-99.1,3.8-113.3,24.2-113.3c20.4,0,24.2,14.2,24.2,113.3H1765v-39.3h0.9l9.9,39.3
		h45.3L1781.6,6.6H1678.8z"/>
</g>
</svg>
