<?xml version="1.0" encoding="utf-8"?>
<!-- Generator: Adobe Illustrator 19.0.0, SVG Export Plug-In . SVG Version: 6.00 Build 0)  -->
<svg version="1.1" id="Warstwa_1" xmlns="http://www.w3.org/2000/svg" xmlns:xlink="http://www.w3.org/1999/xlink" x="0px" y="0px"
	 viewBox="0 0 1685.9 1671" style="enable-background:new 0 0 1685.9 1671;" xml:space="preserve">
<style type="text/css">
	.st0{fill:#FFFFFF;}
</style>
<g id="XMLID_3806_">
	<rect id="XMLID_4487_" x="441.6" y="0" class="st0" width="94.8" height="1671"/>
	<polygon id="XMLID_4488_" class="st0" points="145.9,0 145.9,1671 243.5,1671 338.3,1671 338.3,0 243.5,0 	"/>
	<rect id="XMLID_4489_" x="637.5" y="0" class="st0" width="94.8" height="1671"/>
	<rect id="XMLID_4490_" x="775.8" y="0" class="st0" width="94.8" height="1671"/>
	<rect id="XMLID_4491_" x="0" y="0" class="st0" width="97.6" height="1671"/>
	<polygon id="XMLID_4492_" class="st0" points="1106.7,0 1106.7,1671 1201.5,1671 1299.2,1671 1299.2,0 1201.5,0 	"/>
	<polygon id="XMLID_4493_" class="st0" points="1444.6,0 1347.3,0 1347.3,1671 1444.6,1671 1444.9,1671 1530.9,1671 1530.9,0 
		1444.9,0 	"/>
	<rect id="XMLID_4494_" x="1596.8" y="0" class="st0" width="89.1" height="1671"/>
</g>
</svg>
