<?xml version="1.0" encoding="utf-8"?>
<!-- Generator: Adobe Illustrator 19.0.0, SVG Export Plug-In . SVG Version: 6.00 Build 0)  -->
<svg version="1.1" id="Warstwa_1" xmlns="http://www.w3.org/2000/svg" xmlns:xlink="http://www.w3.org/1999/xlink" x="0px" y="0px"
	 viewBox="0 0 1920 175.9" style="enable-background:new 0 0 1920 175.9;" xml:space="preserve">
<style type="text/css">
	.st0{fill:#FFFFFF;}
</style>
<path id="XMLID_184_" class="st0" d="M94.8,169.6V42h28.9c41.2,0,75.6-12.6,94.8-41.7H0v169.2H94.8z"/>
<path id="XMLID_183_" class="st0" d="M1104.5,67.8c0.2-4.3,0.3-8.7,0.3-13.3V0H1010v72.5c0,28.9-3.8,40.8-21.8,40.8
	c-18,0-21.8-11.9-21.8-40.8V0h-94.8v54.5c0,13.9,0.7,26.5,2.2,37.9H770.6V0h-94.8v92.4H572.5V0H380.1c0,99.1-3.8,113.3-24.2,113.3
	c-20.4,0-24.2-14.2-24.2-113.3h-97.6c0,108.1,0,175.9,121.8,175.9c113.8,0,121.3-59.2,121.8-155.2v148.5h198.1h0H874V93.5
	c7.9,56.6,37.6,82.3,114.3,82.3c77.7,0,111.5-34.6,116.1-104.2v5.1"/>
<path id="XMLID_182_" class="st0" d="M1435.7,169.2V39c1.7,85.1,15.2,136.9,121.6,136.9c104.8,0,119.4-50.2,121.5-133v126.4h86.3V0
	h-183.6c0,99.1-3.8,113.3-24.2,113.3c-20.4,0-24.2-14.2-24.2-113.3h-192.2v169.2H1435.7z"/>
<polygon id="XMLID_179_" class="st0" points="1818.6,169.2 1920,169.2 1920,0 1830.9,0 1830.9,37.4 1829.9,37.4 1821.2,0 1775.9,0 
	"/>
<g id="XMLID_173_">
	<path id="XMLID_177_" class="st0" d="M1270.6,0.3v168.9h-94.8V0.3"/>
</g>
</svg>
