<?xml version="1.0" encoding="utf-8"?>
<!-- Generator: Adobe Illustrator 19.0.0, SVG Export Plug-In . SVG Version: 6.00 Build 0)  -->
<svg version="1.1" id="Warstwa_1" xmlns="http://www.w3.org/2000/svg" xmlns:xlink="http://www.w3.org/1999/xlink" x="0px" y="0px"
	 viewBox="0 0 1920.3 785.7" style="enable-background:new 0 0 1920.3 785.7;" xml:space="preserve">
<style type="text/css">
	.st0{fill:none;stroke:#6FB62C;stroke-miterlimit:10;}
	.st1{fill:#FFFFFF;}
</style>
<g id="XMLID_2886_">
	<polyline id="XMLID_710_" class="st0" points="0,668.1 124.4,668.1 180.4,661.3 250.9,661.3 357,652.5 443.7,642.7 526.7,624.1 
		597.1,608.5 620,605.2 655.2,592.8 682.8,580.4 713.3,580.4 740.2,590.6 775.5,574.7 829.4,557.1 854.3,545.4 887.1,549.8 
		947.6,541 1001.5,522 1034.6,514.1 1075.1,497.1 1127.9,475.5 1238.9,436.4 1271,428.6 1300,403.7 1328,396.3 1468,293.7 
		1501.2,284.6 1594.5,219.4 1617.3,209.6 1673.3,150.9 1710.6,176.4 1745.2,164.6 1768.6,121.6 1920,0.4 	"/>
	<g id="XMLID_91_">
		<path id="XMLID_92_" class="st1" d="M155.1,778.8h-5.8v-13.7h-3.9v-3.7h0.8c2.1,0,4.4-0.9,4.8-3.2h4.2V778.8z"/>
		<path id="XMLID_94_" class="st1" d="M165.4,773.8v0.7c0,0.7,0.4,1.1,1.2,1.1c1.1,0,1.2-0.8,1.2-2.8v-1.9h-0.1
			c-0.8,1-2.1,1.5-3.4,1.5c-4.5,0-4.9-3.7-4.9-6.2c0-5.3,1.7-7.8,7.2-7.8c7,0,7.2,4.7,7.2,9.7c0,6.1,0,11.3-7.2,11.3
			c-4.5,0-6.6-1.2-6.8-5.5H165.4z M165.3,765.1c0,2,0,3.1,1.4,3.1s1.4-1.1,1.4-3.1c0-2,0-3.1-1.4-3.1S165.3,763.1,165.3,765.1z"/>
		<path id="XMLID_97_" class="st1" d="M175.4,758.7h12.4v4.4h-7.9l-0.2,3.3h0.1c0.5-1,2-1.8,3.5-1.8c4.5,0,5.4,2.7,5.4,7.2
			c0,5-1.6,7.5-6.8,7.5c-2.7,0-7-0.4-7-5.9v-0.8h5.5v0.8c0,0.8,0.1,2.2,1.2,2.2c1.3,0,1.3-1.1,1.3-3.5c0-2.4-0.1-3.5-1.3-3.5
			c-0.9,0-1.2,0.9-1.2,1.6H175L175.4,758.7z"/>
		<path id="XMLID_99_" class="st1" d="M191.2,760.3c1.2-1.5,3-2,5.6-2s4.4,0.6,5.6,2c1.2,1.6,1.5,3.7,1.5,8.4s-0.3,6.9-1.5,8.4
			c-1.2,1.5-3,2-5.6,2s-4.4-0.6-5.6-2c-1.2-1.6-1.5-3.7-1.5-8.4S190,761.9,191.2,760.3z M198,762.9c-0.1-0.6-0.4-1-1.2-1
			c-0.7,0-1,0.4-1.2,1c-0.1,0.6-0.2,3.2-0.2,5.8s0.1,5.2,0.2,5.8c0.1,0.6,0.4,1,1.2,1c0.7,0,1-0.4,1.2-1c0.1-0.6,0.2-3.2,0.2-5.8
			S198.1,763.6,198,762.9z"/>
	</g>
	<g id="XMLID_80_">
		<path id="XMLID_81_" class="st1" d="M369,778.8h-5.8v-13.7h-3.9v-3.7h0.8c2.1,0,4.4-0.9,4.8-3.2h4.2V778.8z"/>
		<path id="XMLID_83_" class="st1" d="M379.2,773.8v0.7c0,0.7,0.4,1.1,1.2,1.1c1.1,0,1.2-0.8,1.2-2.8v-1.9h-0.1
			c-0.8,1-2.1,1.5-3.4,1.5c-4.5,0-4.9-3.7-4.9-6.2c0-5.3,1.7-7.8,7.2-7.8c7,0,7.2,4.7,7.2,9.7c0,6.1,0,11.3-7.2,11.3
			c-4.5,0-6.6-1.2-6.8-5.5H379.2z M379.2,765.1c0,2,0,3.1,1.4,3.1s1.4-1.1,1.4-3.1c0-2,0-3.1-1.4-3.1S379.2,763.1,379.2,765.1z"/>
		<path id="XMLID_86_" class="st1" d="M389.2,758.7h12.4v4.4h-7.9l-0.2,3.3h0.1c0.5-1,2-1.8,3.5-1.8c4.5,0,5.4,2.7,5.4,7.2
			c0,5-1.6,7.5-6.8,7.5c-2.7,0-7-0.4-7-5.9v-0.8h5.5v0.8c0,0.8,0.1,2.2,1.2,2.2c1.3,0,1.3-1.1,1.3-3.5c0-2.4-0.1-3.5-1.3-3.5
			c-0.9,0-1.2,0.9-1.2,1.6h-5.3L389.2,758.7z"/>
		<path id="XMLID_88_" class="st1" d="M405.1,760.3c1.2-1.5,3-2,5.6-2s4.4,0.6,5.6,2c1.2,1.6,1.5,3.7,1.5,8.4s-0.3,6.9-1.5,8.4
			c-1.2,1.5-3,2-5.6,2s-4.4-0.6-5.6-2c-1.2-1.6-1.5-3.7-1.5-8.4S403.9,761.9,405.1,760.3z M411.9,762.9c-0.1-0.6-0.4-1-1.2-1
			c-0.7,0-1,0.4-1.2,1c-0.1,0.6-0.2,3.2-0.2,5.8s0.1,5.2,0.2,5.8c0.1,0.6,0.4,1,1.2,1c0.7,0,1-0.4,1.2-1c0.1-0.6,0.2-3.2,0.2-5.8
			S412,763.6,411.9,762.9z"/>
	</g>
	<g id="XMLID_69_">
		<path id="XMLID_70_" class="st1" d="M590.1,778.8h-5.8v-13.7h-3.9v-3.7h0.8c2.1,0,4.4-0.9,4.8-3.2h4.2V778.8z"/>
		<path id="XMLID_72_" class="st1" d="M600.4,773.8v0.7c0,0.7,0.4,1.1,1.2,1.1c1.1,0,1.2-0.8,1.2-2.8v-1.9h-0.1
			c-0.8,1-2.1,1.5-3.4,1.5c-4.5,0-4.9-3.7-4.9-6.2c0-5.3,1.7-7.8,7.2-7.8c7,0,7.2,4.7,7.2,9.7c0,6.1,0,11.3-7.2,11.3
			c-4.5,0-6.6-1.2-6.8-5.5H600.4z M600.3,765.1c0,2,0,3.1,1.4,3.1s1.4-1.1,1.4-3.1c0-2,0-3.1-1.4-3.1S600.3,763.1,600.3,765.1z"/>
		<path id="XMLID_75_" class="st1" d="M610.4,758.7h12.4v4.4h-7.9l-0.2,3.3h0.1c0.5-1,2-1.8,3.5-1.8c4.5,0,5.4,2.7,5.4,7.2
			c0,5-1.6,7.5-6.8,7.5c-2.7,0-7-0.4-7-5.9v-0.8h5.5v0.8c0,0.8,0.1,2.2,1.2,2.2c1.3,0,1.3-1.1,1.3-3.5c0-2.4-0.1-3.5-1.3-3.5
			c-0.9,0-1.2,0.9-1.2,1.6H610L610.4,758.7z"/>
		<path id="XMLID_77_" class="st1" d="M626.2,760.3c1.2-1.5,3-2,5.6-2s4.4,0.6,5.6,2c1.2,1.6,1.5,3.7,1.5,8.4s-0.3,6.9-1.5,8.4
			c-1.2,1.5-3,2-5.6,2s-4.4-0.6-5.6-2c-1.2-1.6-1.5-3.7-1.5-8.4S625,761.9,626.2,760.3z M633,762.9c-0.1-0.6-0.4-1-1.2-1
			c-0.7,0-1,0.4-1.2,1c-0.1,0.6-0.2,3.2-0.2,5.8s0.1,5.2,0.2,5.8c0.1,0.6,0.4,1,1.2,1c0.7,0,1-0.4,1.2-1c0.1-0.6,0.2-3.2,0.2-5.8
			S633.1,763.6,633,762.9z"/>
	</g>
	<g id="XMLID_58_">
		<path id="XMLID_59_" class="st1" d="M807.6,778.8h-5.8v-13.7h-3.9v-3.7h0.8c2.1,0,4.4-0.9,4.8-3.2h4.2V778.8z"/>
		<path id="XMLID_61_" class="st1" d="M817.9,773.8v0.7c0,0.7,0.4,1.1,1.2,1.1c1.1,0,1.2-0.8,1.2-2.8v-1.9h-0.1
			c-0.8,1-2.1,1.5-3.4,1.5c-4.5,0-4.9-3.7-4.9-6.2c0-5.3,1.7-7.8,7.2-7.8c7,0,7.2,4.7,7.2,9.7c0,6.1,0,11.3-7.2,11.3
			c-4.5,0-6.6-1.2-6.8-5.5H817.9z M817.8,765.1c0,2,0,3.1,1.4,3.1s1.4-1.1,1.4-3.1c0-2,0-3.1-1.4-3.1S817.8,763.1,817.8,765.1z"/>
		<path id="XMLID_64_" class="st1" d="M827.9,758.7h12.4v4.4h-7.9l-0.2,3.3h0.1c0.5-1,2-1.8,3.5-1.8c4.5,0,5.4,2.7,5.4,7.2
			c0,5-1.6,7.5-6.8,7.5c-2.7,0-7-0.4-7-5.9v-0.8h5.5v0.8c0,0.8,0.1,2.2,1.2,2.2c1.3,0,1.3-1.1,1.3-3.5c0-2.4-0.1-3.5-1.3-3.5
			c-0.9,0-1.2,0.9-1.2,1.6h-5.3L827.9,758.7z"/>
		<path id="XMLID_66_" class="st1" d="M843.7,760.3c1.2-1.5,3-2,5.6-2s4.4,0.6,5.6,2c1.2,1.6,1.5,3.7,1.5,8.4s-0.3,6.9-1.5,8.4
			c-1.2,1.5-3,2-5.6,2s-4.4-0.6-5.6-2c-1.2-1.6-1.5-3.7-1.5-8.4S842.5,761.9,843.7,760.3z M850.5,762.9c-0.1-0.6-0.4-1-1.2-1
			c-0.7,0-1,0.4-1.2,1c-0.1,0.6-0.2,3.2-0.2,5.8s0.1,5.2,0.2,5.8c0.1,0.6,0.4,1,1.2,1c0.7,0,1-0.4,1.2-1c0.1-0.6,0.2-3.2,0.2-5.8
			S850.6,763.6,850.5,762.9z"/>
	</g>
	<g id="XMLID_47_">
		<path id="XMLID_48_" class="st1" d="M1025.1,778.8h-5.8v-13.7h-3.9v-3.7h0.8c2.1,0,4.4-0.9,4.8-3.2h4.2V778.8z"/>
		<path id="XMLID_50_" class="st1" d="M1035.3,773.8v0.7c0,0.7,0.4,1.1,1.2,1.1c1.1,0,1.2-0.8,1.2-2.8v-1.9h-0.1
			c-0.8,1-2.1,1.5-3.4,1.5c-4.5,0-4.9-3.7-4.9-6.2c0-5.3,1.7-7.8,7.2-7.8c7,0,7.2,4.7,7.2,9.7c0,6.1,0,11.3-7.2,11.3
			c-4.5,0-6.6-1.2-6.8-5.5H1035.3z M1035.3,765.1c0,2,0,3.1,1.4,3.1s1.4-1.1,1.4-3.1c0-2,0-3.1-1.4-3.1S1035.3,763.1,1035.3,765.1z"
			/>
		<path id="XMLID_53_" class="st1" d="M1045.3,758.7h12.4v4.4h-7.9l-0.2,3.3h0.1c0.5-1,2-1.8,3.5-1.8c4.5,0,5.4,2.7,5.4,7.2
			c0,5-1.6,7.5-6.8,7.5c-2.7,0-7-0.4-7-5.9v-0.8h5.5v0.8c0,0.8,0.1,2.2,1.2,2.2c1.3,0,1.3-1.1,1.3-3.5c0-2.4-0.1-3.5-1.3-3.5
			c-0.9,0-1.2,0.9-1.2,1.6h-5.3L1045.3,758.7z"/>
		<path id="XMLID_55_" class="st1" d="M1061.2,760.3c1.2-1.5,3-2,5.6-2c2.6,0,4.4,0.6,5.6,2c1.2,1.6,1.5,3.7,1.5,8.4
			s-0.3,6.9-1.5,8.4c-1.2,1.5-3,2-5.6,2c-2.6,0-4.4-0.6-5.6-2c-1.2-1.6-1.5-3.7-1.5-8.4S1060,761.9,1061.2,760.3z M1068,762.9
			c-0.1-0.6-0.4-1-1.2-1c-0.7,0-1,0.4-1.2,1c-0.1,0.6-0.2,3.2-0.2,5.8s0.1,5.2,0.2,5.8c0.1,0.6,0.4,1,1.2,1c0.7,0,1-0.4,1.2-1
			c0.1-0.6,0.2-3.2,0.2-5.8S1068.1,763.6,1068,762.9z"/>
	</g>
	<g id="XMLID_36_">
		<path id="XMLID_37_" class="st1" d="M1242.6,778.8h-5.8v-13.7h-3.9v-3.7h0.8c2.1,0,4.4-0.9,4.8-3.2h4.2V778.8z"/>
		<path id="XMLID_39_" class="st1" d="M1252.8,773.8v0.7c0,0.7,0.4,1.1,1.2,1.1c1.1,0,1.2-0.8,1.2-2.8v-1.9h-0.1
			c-0.8,1-2.1,1.5-3.4,1.5c-4.5,0-4.9-3.7-4.9-6.2c0-5.3,1.7-7.8,7.2-7.8c7,0,7.2,4.7,7.2,9.7c0,6.1,0,11.3-7.2,11.3
			c-4.5,0-6.6-1.2-6.8-5.5H1252.8z M1252.8,765.1c0,2,0,3.1,1.4,3.1s1.4-1.1,1.4-3.1c0-2,0-3.1-1.4-3.1S1252.8,763.1,1252.8,765.1z"
			/>
		<path id="XMLID_42_" class="st1" d="M1262.8,758.7h12.4v4.4h-7.9l-0.2,3.3h0.1c0.5-1,2-1.8,3.5-1.8c4.5,0,5.4,2.7,5.4,7.2
			c0,5-1.6,7.5-6.8,7.5c-2.7,0-7-0.4-7-5.9v-0.8h5.5v0.8c0,0.8,0.1,2.2,1.2,2.2c1.3,0,1.3-1.1,1.3-3.5c0-2.4-0.1-3.5-1.3-3.5
			c-0.9,0-1.2,0.9-1.2,1.6h-5.3L1262.8,758.7z"/>
		<path id="XMLID_44_" class="st1" d="M1278.7,760.3c1.2-1.5,3-2,5.6-2c2.6,0,4.4,0.6,5.6,2c1.2,1.6,1.5,3.7,1.5,8.4
			s-0.3,6.9-1.5,8.4c-1.2,1.5-3,2-5.6,2c-2.6,0-4.4-0.6-5.6-2c-1.2-1.6-1.5-3.7-1.5-8.4S1277.5,761.9,1278.7,760.3z M1285.5,762.9
			c-0.1-0.6-0.4-1-1.2-1s-1,0.4-1.2,1c-0.1,0.6-0.2,3.2-0.2,5.8s0.1,5.2,0.2,5.8c0.1,0.6,0.4,1,1.2,1s1-0.4,1.2-1
			c0.1-0.6,0.2-3.2,0.2-5.8S1285.6,763.6,1285.5,762.9z"/>
	</g>
	<g id="XMLID_25_">
		<path id="XMLID_26_" class="st1" d="M1460.1,778.8h-5.8v-13.7h-3.9v-3.7h0.8c2.1,0,4.4-0.9,4.8-3.2h4.2V778.8z"/>
		<path id="XMLID_28_" class="st1" d="M1470.3,773.8v0.7c0,0.7,0.4,1.1,1.2,1.1c1.1,0,1.2-0.8,1.2-2.8v-1.9h-0.1
			c-0.8,1-2.1,1.5-3.4,1.5c-4.5,0-4.9-3.7-4.9-6.2c0-5.3,1.7-7.8,7.2-7.8c7,0,7.2,4.7,7.2,9.7c0,6.1,0,11.3-7.2,11.3
			c-4.5,0-6.6-1.2-6.8-5.5H1470.3z M1470.3,765.1c0,2,0,3.1,1.4,3.1s1.4-1.1,1.4-3.1c0-2,0-3.1-1.4-3.1S1470.3,763.1,1470.3,765.1z"
			/>
		<path id="XMLID_31_" class="st1" d="M1480.3,758.7h12.4v4.4h-7.9l-0.2,3.3h0.1c0.5-1,2-1.8,3.5-1.8c4.5,0,5.4,2.7,5.4,7.2
			c0,5-1.6,7.5-6.8,7.5c-2.7,0-7-0.4-7-5.9v-0.8h5.5v0.8c0,0.8,0.1,2.2,1.2,2.2c1.3,0,1.3-1.1,1.3-3.5c0-2.4-0.1-3.5-1.3-3.5
			c-0.9,0-1.2,0.9-1.2,1.6h-5.3L1480.3,758.7z"/>
		<path id="XMLID_33_" class="st1" d="M1496.2,760.3c1.2-1.5,3-2,5.6-2c2.6,0,4.4,0.6,5.6,2c1.2,1.6,1.5,3.7,1.5,8.4
			s-0.3,6.9-1.5,8.4c-1.2,1.5-3,2-5.6,2c-2.6,0-4.4-0.6-5.6-2c-1.2-1.6-1.5-3.7-1.5-8.4S1494.9,761.9,1496.2,760.3z M1502.9,762.9
			c-0.1-0.6-0.4-1-1.2-1c-0.7,0-1,0.4-1.2,1c-0.1,0.6-0.2,3.2-0.2,5.8s0.1,5.2,0.2,5.8c0.1,0.6,0.4,1,1.2,1c0.7,0,1-0.4,1.2-1
			c0.1-0.6,0.2-3.2,0.2-5.8S1503.1,763.6,1502.9,762.9z"/>
	</g>
	<g id="XMLID_14_">
		<path id="XMLID_15_" class="st1" d="M1681,778.8h-13.9c0.1-2.8,0.8-5.3,2.8-7.5l3.5-3.6c0.4-0.4,1.3-1.4,1.6-2.2
			c0.2-0.5,0.2-1,0.2-1.7c0-1.1-0.2-1.8-1.2-1.8c-1.1,0-1.2,1.2-1.2,2v1.3h-5.5c0-2.5,0.4-4.2,1.5-5.3c1.1-1.1,2.8-1.6,5.3-1.6
			c6.1,0,6.9,3,6.9,5.7c0,2.9-0.9,4.6-2.4,6c-1.4,1.4-3,2.6-4.4,4.6h6.9V778.8z"/>
		<path id="XMLID_17_" class="st1" d="M1683.5,760.3c1.2-1.5,3-2,5.6-2c2.6,0,4.4,0.6,5.6,2c1.2,1.6,1.5,3.7,1.5,8.4
			s-0.3,6.9-1.5,8.4c-1.2,1.5-3,2-5.6,2c-2.6,0-4.4-0.6-5.6-2c-1.2-1.6-1.5-3.7-1.5-8.4S1682.3,761.9,1683.5,760.3z M1690.3,762.9
			c-0.1-0.6-0.4-1-1.2-1c-0.7,0-1,0.4-1.2,1c-0.1,0.6-0.2,3.2-0.2,5.8s0.1,5.2,0.2,5.8c0.1,0.6,0.4,1,1.2,1c0.7,0,1-0.4,1.2-1
			c0.1-0.6,0.2-3.2,0.2-5.8S1690.4,763.6,1690.3,762.9z"/>
		<path id="XMLID_20_" class="st1" d="M1707.7,778.8h-5.8v-13.7h-3.9v-3.7h0.8c2.1,0,4.4-0.9,4.8-3.2h4.2V778.8z"/>
		<path id="XMLID_22_" class="st1" d="M1713.6,760.3c1.2-1.5,3-2,5.6-2c2.6,0,4.4,0.6,5.6,2c1.2,1.6,1.5,3.7,1.5,8.4
			s-0.3,6.9-1.5,8.4c-1.2,1.5-3,2-5.6,2c-2.6,0-4.4-0.6-5.6-2c-1.2-1.6-1.5-3.7-1.5-8.4S1712.4,761.9,1713.6,760.3z M1720.4,762.9
			c-0.1-0.6-0.4-1-1.2-1s-1,0.4-1.2,1c-0.1,0.6-0.2,3.2-0.2,5.8s0.1,5.2,0.2,5.8c0.1,0.6,0.4,1,1.2,1s1-0.4,1.2-1
			c0.1-0.6,0.2-3.2,0.2-5.8S1720.6,763.6,1720.4,762.9z"/>
	</g>
</g>
</svg>
