<?xml version="1.0" encoding="utf-8"?>
<!-- Generator: Adobe Illustrator 19.0.0, SVG Export Plug-In . SVG Version: 6.00 Build 0)  -->
<svg version="1.1" id="Warstwa_1" xmlns="http://www.w3.org/2000/svg" xmlns:xlink="http://www.w3.org/1999/xlink" x="0px" y="0px"
	 viewBox="0 0 1251.2 356.4" style="enable-background:new 0 0 1251.2 356.4;" xml:space="preserve">
<style type="text/css">
	.st0{fill:#44F300;}
</style>
<g id="XMLID_205_">
	<path id="XMLID_211_" class="st0" d="M0,6.7h96.1v265.1h104.7v77.8H0V6.7z"/>
	<path id="XMLID_213_" class="st0" d="M337.2,0c123.4,0,123.4,72,123.4,178.2c0,109.5,0,178.2-123.4,178.2s-123.4-68.7-123.4-178.2
		C213.7,72,213.7,0,337.2,0z M337.2,63.4c-20.7,0-24.5,14.4-24.5,114.8S316.5,293,337.2,293s24.5-14.4,24.5-114.8
		S357.8,63.4,337.2,63.4z"/>
	<path id="XMLID_226_" class="st0" d="M607.1,162.8h117.7v186.8H658l-2.4-27.9h-1c-16.3,30.3-42.7,34.6-70.6,34.6
		c-97.5,0-100.4-85.5-100.4-177.7c0-98,5.3-178.7,122.5-178.7c95.1,0,115.8,47.5,115.8,116.2h-90.3v-13.9c0-25.5-5.8-38.9-24.5-38.9
		c-23.1,0-24.5,21.6-24.5,42.3v141.2c0,21.1,1.9,46.1,25,46.1s26.9-17.8,26.9-43.2v-23.5h-27.4V162.8z"/>
	<path id="XMLID_231_" class="st0" d="M876.5,6.7h96.1v342.9h-96.1V6.7z"/>
	<path id="XMLID_260_" class="st0" d="M1160.9,6.7h90.3v342.9h-102.8l-53.3-211.3h-1v211.3h-87.4V6.7h104.2l49,209.4h1V6.7z"/>
</g>
</svg>
