<?xml version="1.0" encoding="utf-8"?>
<!-- Generator: Adobe Illustrator 19.0.0, SVG Export Plug-In . SVG Version: 6.00 Build 0)  -->
<svg version="1.1" id="Warstwa_1" xmlns="http://www.w3.org/2000/svg" xmlns:xlink="http://www.w3.org/1999/xlink" x="0px" y="0px"
	 viewBox="0 0 1920 457.9" style="enable-background:new 0 0 1920 457.9;" xml:space="preserve">
<style type="text/css">
	.st0{fill:#FFFFFF;}
</style>
<path id="XMLID_2493_" class="st0" d="M785.8,382.2h-82.8l-12.4,67.3H563.5l104.4-441h155l103.8,441H799.4L785.8,382.2z
	 M745.7,104.9h-1.2l-28.4,181h56.2L745.7,104.9z"/>
<g id="XMLID_345_">
	<g id="XMLID_2490_">
		<path id="XMLID_2491_" class="st0" d="M305.6,8.6h123.4v340.6h134.5v100H305.6V8.6z"/>
	</g>
	<g id="XMLID_2487_">
		<path id="XMLID_2488_" class="st0" d="M1199,8.6h291.3v103.7h-83.9v336.9h-123.4V112.3H1199V8.6z"/>
	</g>
	<g id="XMLID_2477_">
		<path id="XMLID_2478_" class="st0" d="M1488.9,8.6h123.4v440.6h-123.4V8.6z"/>
	</g>
	<g id="XMLID_2471_">
		<path id="XMLID_2474_" class="st0" d="M1084.6,117.2c0-18.5-8-35.8-29-35.8c-18.5,0-28.4,15.4-28.4,33.3
			c0,87.6,183.9,42.6,183.9,199.9c0,102.4-47.5,143.2-161.7,143.2c-94.4,0-146.2-32.1-146.2-129v-11.7h119.7v20.4
			c0,21.6,9.3,38.9,30.9,38.9c22.8,0,30.2-19.7,30.2-38.9c0-28.4-10.5-34.6-26.5-43.8c-16.7-9.3-38.9-17.9-61.1-29
			c-66.6-33.3-88.9-57.4-88.9-122.8c0-61.1,18.5-94.4,46.9-114.8C975.4,12.3,1006.9,0,1055,0c124.6,0,145.6,61.7,145.6,135.1h-116
			V117.2z"/>
	</g>
	<g id="XMLID_1625_">
		<path id="XMLID_2467_" class="st0" d="M1797.8,135.8c0-19.1,0-54.3-25.3-54.3c-32.1,0-33.3,22.2-33.3,147.5
			c0,129,3.1,147.5,33.3,147.5c19.7,0,27.8-19.7,27.8-74.7v-33.9H1920v27.8c0,103-41.3,162.3-149.3,162.3
			c-158.6,0-158.6-88.2-158.6-228.9c0-136.4,0-228.9,158.6-228.9c131.4,0,146.9,71,146.9,139.5v32.1h-119.7V135.8z"/>
	</g>
	<g id="XMLID_403_">
		<path id="XMLID_524_" class="st0" d="M0,8.6h163.5c94.4,0,142.5,40.1,142.5,137c0,98.1-61.7,137.6-145,137.6h-37.6v166H0V8.6z
			 M123.4,194.4H137c22.8,0,42-4.3,42-48.7c0-30.2-10.5-48.1-42-48.1h-13.6V194.4z"/>
	</g>
</g>
</svg>
