<?xml version="1.0" encoding="utf-8"?>
<!-- Generator: Adobe Illustrator 19.0.0, SVG Export Plug-In . SVG Version: 6.00 Build 0)  -->
<svg version="1.1" id="Warstwa_1" xmlns="http://www.w3.org/2000/svg" xmlns:xlink="http://www.w3.org/1999/xlink" x="0px" y="0px"
	 viewBox="0 0 847.1 412.6" style="enable-background:new 0 0 847.1 412.6;" xml:space="preserve">
<style type="text/css">
	.st0{fill:#44F300;}
</style>
<g id="XMLID_547_">
	<g id="XMLID_557_">
		<g id="XMLID_82_">
			<path id="XMLID_87_" class="st0" d="M251.1,206.2H32.7c12.3,11.2,29,21.2,51.3,32.3c20,10,40,17.8,55,26.1
				c14.5,8.3,23.9,13.9,23.9,39.5c0,17.2-6.7,35-27.2,35c-19.5,0-27.8-15.6-27.8-35v-18.3H0v10.6c0,87.3,46.7,116.2,131.8,116.2
				c97.6,0,141.1-33,145.3-115.2v-24.6C275.2,242.8,265.2,221.8,251.1,206.2z"/>
			<g id="XMLID_83_">
				<path id="XMLID_86_" class="st0" d="M521.2,314.7H388.3v-68.9h119.5v-39.5H277.1v66.5c0.2,3.5,0.3,7.1,0.3,10.8
					c0,4.7-0.1,9.3-0.3,13.8v107.5h243.1l1-4.2V314.7z"/>
				<polygon id="XMLID_85_" class="st0" points="708.1,257.1 657.5,257.1 665.6,205.9 567.2,205.9 521.2,400.3 521.2,404.4 
					634.7,404.4 645.9,343.8 720.4,343.8 732.6,404.4 847.1,404.4 800.4,205.9 700.6,205.9 				"/>
				<path id="XMLID_84_" class="st0" d="M111.8,103.4c0-16.1,8.9-30,25.6-30c18.9,0,26.1,15.6,26.1,32.2v16.1H268
					C268,55.6,249.1,0,136.8,0C93.4,0,65.1,11.1,46.1,24.5C20.6,42.8,3.9,72.8,3.9,127.9c0,37.1,7.9,59.4,28.8,78.4h218.5
					C204.4,154.7,111.8,162.5,111.8,103.4z"/>
			</g>
		</g>
	</g>
</g>
</svg>
