<?xml version="1.0" encoding="utf-8"?>
<!-- Generator: Adobe Illustrator 19.0.0, SVG Export Plug-In . SVG Version: 6.00 Build 0)  -->
<svg version="1.1" id="Warstwa_1" xmlns="http://www.w3.org/2000/svg" xmlns:xlink="http://www.w3.org/1999/xlink" x="0px" y="0px"
	 viewBox="0 0 1920 118.5" style="enable-background:new 0 0 1920 118.5;" xml:space="preserve">
<style type="text/css">
	.st0{fill:#FFFFFF;}
</style>
<g id="XMLID_3806_">
	<rect id="XMLID_4487_" x="-1652.7" y="-1290.5" class="st0" width="94.8" height="1671"/>
	<polygon id="XMLID_4488_" class="st0" points="-1948.4,-1290.5 -1948.4,380.5 -1850.8,380.5 -1756,380.5 -1756,-1290.5 
		-1850.8,-1290.5 	"/>
	<rect id="XMLID_4489_" x="-1456.7" y="-1290.5" class="st0" width="94.8" height="1671"/>
	<rect id="XMLID_4490_" x="-1318.5" y="-1290.5" class="st0" width="94.8" height="1671"/>
	<rect id="XMLID_4491_" x="-2094.3" y="-1290.5" class="st0" width="97.6" height="1671"/>
	<polygon id="XMLID_4492_" class="st0" points="-987.5,-1290.5 -987.5,380.5 -892.7,380.5 -795.1,380.5 -795.1,-1290.5 
		-892.7,-1290.5 	"/>
	<polygon id="XMLID_4493_" class="st0" points="-649.6,-1290.5 -747,-1290.5 -747,380.5 -649.6,380.5 -649.4,380.5 -563.4,380.5 
		-563.4,-1290.5 -649.4,-1290.5 	"/>
	<rect id="XMLID_4494_" x="-497.5" y="-1290.5" class="st0" width="89.1" height="1671"/>
</g>
<g id="XMLID_27_">
	<rect id="XMLID_28_" x="-1654.7" y="592.1" class="st0" width="94.8" height="169.2"/>
	<rect id="XMLID_39_" x="-1458.9" y="592.1" class="st0" width="94.8" height="169.2"/>
	<rect id="XMLID_40_" x="-1320.4" y="592.1" class="st0" width="94.8" height="169.2"/>
	<path id="XMLID_43_" class="st0" d="M-1852.8,741.2c-0.5-93.6-7.9-155.7-121.8-155.7c-96.9,0-116.7,45-120.8,116.1
		c0-1.4,0.1-2.8,0.1-4.3c0-74.4-37-105.2-109.5-105.2h-125.6v169.2h218.5c9-13.6,14.6-30.8,16.2-51.9c-0.7,16.1-0.7,33.5-0.7,51.9
		h97.6c0-99.1,3.8-113.3,24.2-113.3c20.4,0,24.2,14.2,24.2,113.3h192.4V592.1h-94.8V741.2z M-2225.2,734.8h-10.4v-74.4h10.4
		c24.2,0,32.2,13.7,32.2,37C-2192.9,731.4-2207.6,734.8-2225.2,734.8z"/>
	<rect id="XMLID_44_" x="-499.5" y="592.1" class="st0" width="89.1" height="169.2"/>
	<path id="XMLID_45_" class="st0" d="M-651.6,592.1v127.4c-2-81.4-16.7-134.1-121.5-134.1c-106.4,0-119.9,54.3-121.6,137.8V592.1
		h-94.7v0h-236.2v79.7h71v89.6h94.8v-89.6h70.3v89.6h192.2c0-99.1,3.8-113.3,24.2-113.3c20.4,0,24.2,14.2,24.2,113.3h183.6V722h0.9
		l9.9,39.3h45.3l-39.6-169.2H-651.6z"/>
</g>
<path id="XMLID_184_" class="st0" d="M-2235.6,1138.9v-127.5h28.9c41.2,0,75.6-12.6,94.8-41.7h-218.5v169.2H-2235.6z"/>
<path id="XMLID_183_" class="st0" d="M-1225.8,1037.1c0.2-4.3,0.3-8.7,0.3-13.3v-54.5h-94.8v72.5c0,28.9-3.8,40.8-21.8,40.8
	c-18,0-21.8-11.9-21.8-40.8v-72.5h-94.8v54.5c0,13.9,0.7,26.5,2.2,37.9h-103.2v-92.4h-94.8v92.4h-103.3v-92.4h-192.4
	c0,99.1-3.8,113.3-24.2,113.3c-20.4,0-24.2-14.2-24.2-113.3h-97.6c0,108.1,0,175.9,121.8,175.9c113.8,0,121.3-59.2,121.8-155.2
	v148.5h198.1h0h198.1v-75.7c7.9,56.6,37.6,82.3,114.3,82.3c77.7,0,111.5-34.6,116.1-104.2v5.1"/>
<path id="XMLID_182_" class="st0" d="M-894.7,1138.5v-130.2c1.7,85.1,15.2,136.9,121.6,136.9c104.8,0,119.4-50.2,121.5-133v126.4
	h86.3V969.3H-749c0,99.1-3.8,113.3-24.2,113.3c-20.4,0-24.2-14.2-24.2-113.3h-192.2v169.2H-894.7z"/>
<polygon id="XMLID_179_" class="st0" points="-511.8,1138.5 -410.4,1138.5 -410.4,969.3 -499.5,969.3 -499.5,1006.8 -500.4,1006.8 
	-509.2,969.3 -554.5,969.3 "/>
<g id="XMLID_173_">
	<path id="XMLID_177_" class="st0" d="M-1059.8,969.6v168.9h-94.8V969.6"/>
</g>
<g id="XMLID_3825_">
	<g id="XMLID_3871_">
		<path id="XMLID_3878_" class="st0" d="M46.9,30.3c0-4.8-2.1-9.3-7.5-9.3c-4.8,0-7.3,4-7.3,8.6c0,22.7,47.6,11,47.6,51.7
			c0,26.5-12.3,37-41.8,37C13.4,118.5,0,110.2,0,85.1v-3h31v5.3c0,5.6,2.4,10.1,8,10.1c5.9,0,7.8-5.1,7.8-10.1
			c0-7.3-2.7-8.9-6.9-11.3c-4.3-2.4-10.1-4.6-15.8-7.5c-17.2-8.6-23-14.8-23-31.8C1.1,20.9,5.9,12.3,13.3,7c5.4-3.8,13.6-7,26-7
			C71.5,0,77,16,77,35h-30V30.3z"/>
		<path id="XMLID_3876_" class="st0" d="M87.3,2.2h31.9v114H87.3V2.2z"/>
		<path id="XMLID_3874_" class="st0" d="M175.3,35.1c0-4.9,0-14-6.5-14c-8.3,0-8.6,5.7-8.6,38.2c0,33.4,0.8,38.2,8.6,38.2
			c5.1,0,7.2-5.1,7.2-19.3v-8.8h31v7.2c0,26.7-10.7,42-38.6,42c-41,0-41-22.8-41-59.2c0-35.3,0-59.2,41-59.2c34,0,38,18.4,38,36.1
			v8.3h-31V35.1z"/>
		<path id="XMLID_3872_" class="st0" d="M266.5,2.2h34.6L273,52.4l31.6,63.9h-35.9l-16.3-37.8l-4.6,8.8v29.1h-31.9V2.2h31.9v43.4
			h0.3L266.5,2.2z"/>
	</g>
	<g id="XMLID_3862_">
		<path id="XMLID_3869_" class="st0" d="M373.9,30.3c0-4.8-2.1-9.3-7.5-9.3c-4.8,0-7.3,4-7.3,8.6c0,22.7,47.6,11,47.6,51.7
			c0,26.5-12.3,37-41.8,37c-24.4,0-37.8-8.3-37.8-33.4v-3h31v5.3c0,5.6,2.4,10.1,8,10.1c5.9,0,7.8-5.1,7.8-10.1
			c0-7.3-2.7-8.9-6.9-11.3c-4.3-2.4-10.1-4.6-15.8-7.5c-17.2-8.6-23-14.8-23-31.8c0-15.8,4.8-24.4,12.1-29.7c5.4-3.8,13.6-7,26-7
			c32.3,0,37.7,16,37.7,35h-30V30.3z"/>
		<path id="XMLID_3867_" class="st0" d="M414.3,2.2h31.9v114h-31.9V2.2z"/>
		<path id="XMLID_3865_" class="st0" d="M502.3,35.1c0-4.9,0-14-6.5-14c-8.3,0-8.6,5.7-8.6,38.2c0,33.4,0.8,38.2,8.6,38.2
			c5.1,0,7.2-5.1,7.2-19.3v-8.8h31v7.2c0,26.7-10.7,42-38.6,42c-41,0-41-22.8-41-59.2c0-35.3,0-59.2,41-59.2c34,0,38,18.4,38,36.1
			v8.3h-31V35.1z"/>
		<path id="XMLID_3863_" class="st0" d="M593.4,2.2h34.6L600,52.4l31.6,63.9h-35.9l-16.3-37.8l-4.6,8.8v29.1h-31.9V2.2h31.9v43.4
			h0.3L593.4,2.2z"/>
	</g>
	<g id="XMLID_3853_">
		<path id="XMLID_3860_" class="st0" d="M704.9,30.3c0-4.8-2.1-9.3-7.5-9.3c-4.8,0-7.3,4-7.3,8.6c0,22.7,47.6,11,47.6,51.7
			c0,26.5-12.3,37-41.8,37c-24.4,0-37.8-8.3-37.8-33.4v-3h31v5.3c0,5.6,2.4,10.1,8,10.1c5.9,0,7.8-5.1,7.8-10.1
			c0-7.3-2.7-8.9-6.9-11.3c-4.3-2.4-10.1-4.6-15.8-7.5c-17.2-8.6-23-14.8-23-31.8c0-15.8,4.8-24.4,12.1-29.7c5.4-3.8,13.6-7,26-7
			c32.3,0,37.7,16,37.7,35h-30V30.3z"/>
		<path id="XMLID_3858_" class="st0" d="M745.3,2.2h31.9v114h-31.9V2.2z"/>
		<path id="XMLID_3856_" class="st0" d="M833.3,35.1c0-4.9,0-14-6.5-14c-8.3,0-8.6,5.7-8.6,38.2c0,33.4,0.8,38.2,8.6,38.2
			c5.1,0,7.2-5.1,7.2-19.3v-8.8h31v7.2c0,26.7-10.7,42-38.6,42c-41,0-41-22.8-41-59.2c0-35.3,0-59.2,41-59.2c34,0,38,18.4,38,36.1
			v8.3h-31V35.1z"/>
		<path id="XMLID_3854_" class="st0" d="M924.4,2.2h34.6L931,52.4l31.6,63.9h-35.9l-16.3-37.8l-4.6,8.8v29.1h-31.9V2.2h31.9v43.4
			h0.3L924.4,2.2z"/>
	</g>
	<g id="XMLID_3844_">
		<path id="XMLID_3851_" class="st0" d="M1027.8,30.3c0-4.8-2.1-9.3-7.5-9.3c-4.8,0-7.3,4-7.3,8.6c0,22.7,47.6,11,47.6,51.7
			c0,26.5-12.3,37-41.8,37c-24.4,0-37.8-8.3-37.8-33.4v-3h31v5.3c0,5.6,2.4,10.1,8,10.1c5.9,0,7.8-5.1,7.8-10.1
			c0-7.3-2.7-8.9-6.9-11.3c-4.3-2.4-10.1-4.6-15.8-7.5c-17.2-8.6-23-14.8-23-31.8c0-15.8,4.8-24.4,12.1-29.7c5.4-3.8,13.6-7,26-7
			c32.3,0,37.7,16,37.7,35h-30V30.3z"/>
		<path id="XMLID_3849_" class="st0" d="M1068.2,2.2h31.9v114h-31.9V2.2z"/>
		<path id="XMLID_3847_" class="st0" d="M1156.2,35.1c0-4.9,0-14-6.5-14c-8.3,0-8.6,5.7-8.6,38.2c0,33.4,0.8,38.2,8.6,38.2
			c5.1,0,7.2-5.1,7.2-19.3v-8.8h31v7.2c0,26.7-10.7,42-38.6,42c-41,0-41-22.8-41-59.2c0-35.3,0-59.2,41-59.2c34,0,38,18.4,38,36.1
			v8.3h-31V35.1z"/>
		<path id="XMLID_3845_" class="st0" d="M1247.4,2.2h34.6l-28.1,50.1l31.6,63.9h-35.9l-16.3-37.8l-4.6,8.8v29.1h-31.9V2.2h31.9v43.4
			h0.3L1247.4,2.2z"/>
	</g>
	<g id="XMLID_3835_">
		<path id="XMLID_3842_" class="st0" d="M1344.7,30.3c0-4.8-2.1-9.3-7.5-9.3c-4.8,0-7.3,4-7.3,8.6c0,22.7,47.6,11,47.6,51.7
			c0,26.5-12.3,37-41.8,37c-24.4,0-37.8-8.3-37.8-33.4v-3h31v5.3c0,5.6,2.4,10.1,8,10.1c5.9,0,7.8-5.1,7.8-10.1
			c0-7.3-2.7-8.9-6.9-11.3c-4.3-2.4-10.1-4.6-15.8-7.5c-17.2-8.6-23-14.8-23-31.8c0-15.8,4.8-24.4,12.1-29.7c5.4-3.8,13.6-7,26-7
			c32.3,0,37.7,16,37.7,35h-30V30.3z"/>
		<path id="XMLID_3840_" class="st0" d="M1385.1,2.2h31.9v114h-31.9V2.2z"/>
		<path id="XMLID_3838_" class="st0" d="M1473.1,35.1c0-4.9,0-14-6.5-14c-8.3,0-8.6,5.7-8.6,38.2c0,33.4,0.8,38.2,8.6,38.2
			c5.1,0,7.2-5.1,7.2-19.3v-8.8h31v7.2c0,26.7-10.7,42-38.6,42c-41,0-41-22.8-41-59.2c0-35.3,0-59.2,41-59.2c34,0,38,18.4,38,36.1
			v8.3h-31V35.1z"/>
		<path id="XMLID_3836_" class="st0" d="M1564.2,2.2h34.6l-28.1,50.1l31.6,63.9h-35.9l-16.3-37.8l-4.6,8.8v29.1h-31.9V2.2h31.9v43.4
			h0.3L1564.2,2.2z"/>
	</g>
	<g id="XMLID_3826_">
		<path id="XMLID_3833_" class="st0" d="M1662.3,30.3c0-4.8-2.1-9.3-7.5-9.3c-4.8,0-7.3,4-7.3,8.6c0,22.7,47.6,11,47.6,51.7
			c0,26.5-12.3,37-41.8,37c-24.4,0-37.8-8.3-37.8-33.4v-3h31v5.3c0,5.6,2.4,10.1,8,10.1c5.9,0,7.8-5.1,7.8-10.1
			c0-7.3-2.7-8.9-6.9-11.3c-4.3-2.4-10.1-4.6-15.8-7.5c-17.2-8.6-23-14.8-23-31.8c0-15.8,4.8-24.4,12.1-29.7c5.4-3.8,13.6-7,26-7
			c32.3,0,37.7,16,37.7,35h-30V30.3z"/>
		<path id="XMLID_3831_" class="st0" d="M1702.7,2.2h31.9v114h-31.9V2.2z"/>
		<path id="XMLID_3829_" class="st0" d="M1790.7,35.1c0-4.9,0-14-6.5-14c-8.3,0-8.6,5.7-8.6,38.2c0,33.4,0.8,38.2,8.6,38.2
			c5.1,0,7.2-5.1,7.2-19.3v-8.8h31v7.2c0,26.7-10.7,42-38.6,42c-41,0-41-22.8-41-59.2c0-35.3,0-59.2,41-59.2c34,0,38,18.4,38,36.1
			v8.3h-31V35.1z"/>
		<path id="XMLID_3827_" class="st0" d="M1881.9,2.2h34.6l-28.1,50.1l31.6,63.9h-35.9l-16.3-37.8l-4.6,8.8v29.1h-31.9V2.2h31.9v43.4
			h0.3L1881.9,2.2z"/>
	</g>
</g>
<path id="XMLID_2493_" class="st0" d="M785.8-251.5h-82.8l-12.4,67.3H563.5l104.4-441h155l103.8,441H799.4L785.8-251.5z
	 M745.7-528.8h-1.2l-28.4,181h56.2L745.7-528.8z"/>
<g id="XMLID_345_">
	<g id="XMLID_2490_">
		<path id="XMLID_2491_" class="st0" d="M305.7-625h123.4v340.6h134.5v100H305.7V-625z"/>
	</g>
	<g id="XMLID_2487_">
		<path id="XMLID_2488_" class="st0" d="M1199-625h291.3v103.7h-83.9v336.9h-123.4v-336.9H1199V-625z"/>
	</g>
	<g id="XMLID_2477_">
		<path id="XMLID_2478_" class="st0" d="M1488.9-625h123.4v440.6h-123.4V-625z"/>
	</g>
	<g id="XMLID_2471_">
		<path id="XMLID_2474_" class="st0" d="M1084.6-516.4c0-18.5-8-35.8-29-35.8c-18.5,0-28.4,15.4-28.4,33.3
			c0,87.6,183.9,42.6,183.9,199.9c0,102.4-47.5,143.2-161.7,143.2c-94.4,0-146.2-32.1-146.2-129v-11.7h119.7v20.4
			c0,21.6,9.3,38.9,30.9,38.9c22.8,0,30.2-19.7,30.2-38.9c0-28.4-10.5-34.6-26.5-43.8c-16.7-9.3-38.9-17.9-61.1-29
			c-66.6-33.3-88.9-57.4-88.9-122.8c0-61.1,18.5-94.4,46.9-114.8c21-14.8,52.5-27.2,100.6-27.2c124.6,0,145.6,61.7,145.6,135.1h-116
			V-516.4z"/>
	</g>
	<g id="XMLID_1625_">
		<path id="XMLID_2467_" class="st0" d="M1797.8-497.9c0-19.1,0-54.3-25.3-54.3c-32.1,0-33.3,22.2-33.3,147.5
			c0,129,3.1,147.5,33.3,147.5c19.7,0,27.8-19.7,27.8-74.7v-33.9H1920v27.8c0,103-41.3,162.3-149.3,162.3
			c-158.6,0-158.6-88.2-158.6-228.9c0-136.4,0-228.9,158.6-228.9c131.4,0,146.9,71,146.9,139.5v32.1h-119.7V-497.9z"/>
	</g>
	<g id="XMLID_403_">
		<path id="XMLID_524_" class="st0" d="M0-625h163.5c94.4,0,142.5,40.1,142.5,137c0,98.1-61.7,137.6-145,137.6h-37.6v166H0V-625z
			 M123.4-439.3H137c22.8,0,42-4.3,42-48.7c0-30.2-10.5-48.1-42-48.1h-13.6V-439.3z"/>
	</g>
</g>
</svg>
